<svg xmlns="http://www.w3.org/2000/svg" viewBox="0 0 64 64" role="img" aria-labelledby="logoTitle">
  <title id="logoTitle">Dur-e-sitar floral emblem</title>
  <defs>
    <linearGradient id="bgGrad" x1="0%" y1="0%" x2="100%" y2="100%">
      <stop offset="0%" stop-color="#2b1c16"/>
      <stop offset="100%" stop-color="#4a2d1f"/>
    </linearGradient>
    <linearGradient id="goldGrad" x1="0%" y1="0%" x2="100%" y2="100%">
      <stop offset="0%" stop-color="#f5e6b6"/>
      <stop offset="55%" stop-color="#d8b977"/>
      <stop offset="100%" stop-color="#9a7333"/>
    </linearGradient>
  </defs>
  <rect width="64" height="64" rx="16" fill="url(#bgGrad)"/>
  <circle cx="32" cy="32" r="19" fill="none" stroke="url(#goldGrad)" stroke-width="1.7" opacity="0.95"/>
  <path d="M24 40c7-6 12-15 15-25" fill="none" stroke="url(#goldGrad)" stroke-width="1.8" stroke-linecap="round"/>
  <path d="M31 27c2 0 3.2-1.2 4.2-3.1M28 32c2.1 0 3.3-1.2 4.3-3.1M25 37c2 0 3.3-1.2 4.3-3.1" fill="none" stroke="url(#goldGrad)" stroke-width="1.5" stroke-linecap="round"/>
  <g fill="#fff7e3" opacity="0.96">
    <circle cx="40.5" cy="22" r="2.3"/>
    <circle cx="44.5" cy="26" r="2.3"/>
    <circle cx="40.5" cy="30" r="2.3"/>
    <circle cx="36.5" cy="26" r="2.3"/>
    <circle cx="40.5" cy="26" r="1.3" fill="#d1905b"/>
  </g>
  <path d="M18 47c9 3 19 3 28 0" fill="none" stroke="url(#goldGrad)" stroke-width="1.4" stroke-linecap="round" opacity="0.8"/>
</svg>
